# xmcd
#
# Track frame offsets:
# 150
# 19236
# 39907
#
# Disc length: 763 seconds
#
#
# Revision: 0
# Processed by: cddbd v1.4PL0 Copyright (c) Steve Scherf et al.
# Submitted via: FreeRIP 2.35 
#
DISCID=1902f903
DTITLE=ONE - йаимоуяиа аявг
DYEAR=1900
DGENRE=Folk
TTITLE0=йяата ле
TTITLE1=йаимоуяиа аявг
TTITLE2=посо се пехулгса
EXTD=
EXTT0=
EXTT1=
EXTT2=
PLAYORDER=
